<?xml version="1.0" encoding="utf-8"?>
<!-- Generator: Adobe Illustrator 19.0.0, SVG Export Plug-In . SVG Version: 6.00 Build 0)  -->
<svg version="1.1" id="Layer_1" xmlns="http://www.w3.org/2000/svg" xmlns:xlink="http://www.w3.org/1999/xlink" x="0px" y="0px"
	 viewBox="-77 0 484 480" style="enable-background:new -77 0 484 480;" xml:space="preserve">
<style type="text/css">
	.st0{fill:#67A1E5;}
	.st1{display:none;fill:url(#SVGID_1_);}
	.st2{opacity:0.5;fill:#2E68B2;enable-background:new    ;}
	.st3{clip-path:url(#SVGID_3_);fill:#FFFFFF;}
</style>
<g>
	<g>
		<g>
			<circle class="st0" cx="164" cy="240" r="235.5"/>
			
				<radialGradient id="SVGID_1_" cx="164" cy="240.3333" r="204.5" gradientTransform="matrix(1 0 0 3 0 -481)" gradientUnits="userSpaceOnUse">
				<stop  offset="0" style="stop-color:#94CBFF"/>
				<stop  offset="3.380209e-002" style="stop-color:#84BBF3"/>
				<stop  offset="0.103" style="stop-color:#69A2DF"/>
				<stop  offset="0.1827" style="stop-color:#538CCE"/>
				<stop  offset="0.2757" style="stop-color:#427CC1"/>
				<stop  offset="0.3907" style="stop-color:#3770B9"/>
				<stop  offset="0.552" style="stop-color:#306AB3"/>
				<stop  offset="1" style="stop-color:#2E68B2"/>
			</radialGradient>
			<circle class="st1" cx="164" cy="240" r="204.5"/>
			<circle class="st2" cx="164" cy="240" r="204.5"/>
		</g>
	</g>
</g>
<g>
	<g>
		<defs>
			<rect id="SVGID_2_" x="17" y="134" width="321.8" height="208.9"/>
		</defs>
		<clipPath id="SVGID_3_">
			<use xlink:href="#SVGID_2_"  style="overflow:visible;"/>
		</clipPath>
		<path class="st3" d="M334.6,230.2L200,136.3c-5.3-4.5-9.6-2.5-9.6,4.4V180c0,6.9-5.7,12.6-12.6,12.6l-83.3,0.1H29.6v0.1
			c-6.9,0-12.6,5.7-12.6,12.6v66.2c0,6.9,5.7,12.6,12.6,12.6l146.7-0.2h1.5c6.9,0,12.6,5.7,12.6,12.6V336c0,6.9,4.3,8.9,9.6,4.4
			l134.6-93.8C339.9,242,339.9,234.7,334.6,230.2L334.6,230.2z M334.6,230.2"/>
	</g>
</g>
</svg>
