<?xml version="1.0" encoding="utf-8"?>
<!-- Generator: Adobe Illustrator 19.0.0, SVG Export Plug-In . SVG Version: 6.00 Build 0)  -->
<svg version="1.1" id="Layer_1" xmlns="http://www.w3.org/2000/svg" xmlns:xlink="http://www.w3.org/1999/xlink" x="0px" y="0px"
	 viewBox="-77 0 484 480" style="enable-background:new -77 0 484 480;" xml:space="preserve">
<style type="text/css">
	.st0{fill:#67A1E5;}
	.st1{display:none;fill:url(#SVGID_1_);}
	.st2{opacity:0.5;fill:#2E68B2;enable-background:new    ;}
	.st3{fill:#FFFFFF;}
</style>
<g>
	<g>
		<g>
			<circle class="st0" cx="164" cy="240" r="235.5"/>
			
				<radialGradient id="SVGID_1_" cx="164" cy="240.3333" r="204.5" gradientTransform="matrix(1 0 0 3 0 -481)" gradientUnits="userSpaceOnUse">
				<stop  offset="0" style="stop-color:#94CBFF"/>
				<stop  offset="3.380209e-002" style="stop-color:#84BBF3"/>
				<stop  offset="0.103" style="stop-color:#69A2DF"/>
				<stop  offset="0.1827" style="stop-color:#538CCE"/>
				<stop  offset="0.2757" style="stop-color:#427CC1"/>
				<stop  offset="0.3907" style="stop-color:#3770B9"/>
				<stop  offset="0.552" style="stop-color:#306AB3"/>
				<stop  offset="1" style="stop-color:#2E68B2"/>
			</radialGradient>
			<circle class="st1" cx="164" cy="240" r="204.5"/>
			<circle class="st2" cx="164" cy="240" r="204.5"/>
		</g>
	</g>
</g>
<circle class="st3" cx="164.4" cy="241.4" r="136.4"/>
<g>
	<path d="M300.5,278.6C300.5,278.6,300.5,278.6,300.5,278.6c3.1-11.7,4.8-23.9,4.8-36.6c0-12.6-1.7-24.9-4.8-36.5c0,0,0,0,0,0
		c0,0,0,0,0-0.1c-3.2-11.9-7.9-23.2-14-33.7c0-0.1,0-0.2-0.1-0.3c-0.1-0.1-0.2-0.2-0.2-0.3c-6.1-10.5-13.5-20.2-22-28.7
		c-0.1-0.1-0.1-0.2-0.2-0.3c-0.1-0.1-0.2-0.1-0.3-0.2c-8.6-8.5-18.2-15.9-28.7-22c-0.1-0.1-0.1-0.2-0.3-0.2c-0.1,0-0.2,0-0.3-0.1
		c-10.5-6-21.8-10.8-33.7-14c0,0,0,0,0,0c0,0,0,0,0,0c-11.7-3.1-23.9-4.8-36.5-4.8c-12.6,0-24.9,1.7-36.5,4.8c0,0,0,0,0,0
		c0,0,0,0,0,0c-11.9,3.2-23.2,8-33.7,14c-0.1,0.1-0.2,0.1-0.3,0.1c-0.1,0.1-0.2,0.2-0.3,0.2c-10.5,6.1-20.2,13.5-28.7,22
		c-0.1,0.1-0.2,0.1-0.3,0.2c-0.1,0.1-0.1,0.2-0.2,0.3c-8.5,8.6-15.9,18.2-22,28.7c-0.1,0.1-0.2,0.2-0.2,0.3c0,0.1,0,0.2-0.1,0.3
		c-6,10.5-10.8,21.8-14,33.7c0,0,0,0,0,0c0,0,0,0,0,0c-3.1,11.7-4.8,23.9-4.8,36.5c0,12.6,1.7,24.9,4.8,36.5c0,0,0,0,0,0
		c0,0,0,0,0,0.1c3.2,11.9,7.9,23.2,14,33.7c0,0.1,0,0.2,0.1,0.3c0.1,0.1,0.2,0.3,0.3,0.4c6.1,10.4,13.5,20.1,21.9,28.6
		c0.1,0.1,0.1,0.2,0.2,0.3c0.1,0.1,0.2,0.1,0.3,0.2c8.6,8.5,18.2,15.9,28.7,22c0.1,0.1,0.1,0.2,0.3,0.3c0.2,0.1,0.3,0.1,0.5,0.2
		c10.4,6,21.7,10.7,33.5,13.9c0,0,0,0,0,0c0,0,0,0,0.1,0c11.6,3.1,23.9,4.8,36.5,4.8c12.6,0,24.9-1.7,36.5-4.8c0,0,0,0,0.1,0
		c0,0,0,0,0,0c11.9-3.2,23.1-7.9,33.5-13.9c0.2-0.1,0.3-0.1,0.5-0.2c0.1-0.1,0.2-0.2,0.3-0.2c10.5-6.1,20.1-13.5,28.7-22
		c0.1-0.1,0.2-0.1,0.3-0.2c0.1-0.1,0.1-0.2,0.2-0.3c8.5-8.5,15.8-18.1,22-28.6c0.1-0.1,0.2-0.2,0.3-0.4c0.1-0.1,0-0.2,0.1-0.3
		C292.6,301.9,297.3,290.6,300.5,278.6C300.5,278.6,300.5,278.6,300.5,278.6L300.5,278.6z M281.1,278.3l9,2.4
		c-2.5,8.1-5.7,15.8-9.6,23.1l-8.1-4.6c-2.3-1.3-5.1-0.5-6.4,1.7c-1.3,2.3-0.5,5.1,1.7,6.4l8,4.6c-4.5,7.1-9.6,13.8-15.3,19.9
		l-6.5-6.6c-1.8-1.8-4.8-1.8-6.7,0c-1.8,1.8-1.8,4.8,0,6.7l6.6,6.5c-6.1,5.7-12.8,10.8-19.9,15.3l-4.6-8c-1.3-2.3-4.2-3-6.4-1.7
		c-2.3,1.3-3,4.2-1.7,6.4l4.6,8.1c-7.3,3.9-15.1,7.2-23.1,9.6l-2.4-9c-0.7-2.5-3.2-4-5.8-3.3c-2.5,0.7-4,3.3-3.3,5.8l2.4,9
		c-8,1.8-16.3,3-24.8,3.3v-18.7c0-2.6-2.1-4.7-4.7-4.7s-4.7,2.1-4.7,4.7v18.7c-8.5-0.3-16.8-1.4-24.8-3.2l2.4-9
		c0.7-2.5-0.8-5.1-3.3-5.8c-2.5-0.7-5.1,0.8-5.8,3.3l-2.4,9c-8.1-2.5-15.8-5.7-23.1-9.6l4.6-8.1c1.3-2.3,0.5-5.1-1.7-6.4
		c-2.2-1.3-5.1-0.5-6.4,1.7l-4.6,8c-7.1-4.4-13.8-9.6-19.9-15.3l6.5-6.6c1.8-1.8,1.8-4.8,0-6.6c-1.8-1.8-4.8-1.8-6.7,0l-6.5,6.5
		c-5.7-6.1-10.8-12.8-15.3-19.9l8-4.6c2.3-1.3,3-4.2,1.7-6.4c-1.3-2.3-4.2-3-6.4-1.7l-8.1,4.6c-3.9-7.3-7.2-15.1-9.6-23.1l9-2.4
		c2.5-0.7,4-3.2,3.3-5.8c-0.7-2.5-3.3-4-5.8-3.3l-9,2.4c-1.9-8-3-16.3-3.3-24.8h18.7c2.6,0,4.7-2.1,4.7-4.7c0-2.6-2.1-4.7-4.7-4.7
		H32.2c0.3-8.5,1.4-16.8,3.2-24.8l9,2.4c0.4,0.1,0.8,0.1,1.2,0.1c2.1,0,4-1.4,4.5-3.5c0.7-2.5-0.8-5.1-3.3-5.8l-9-2.4
		c2.5-8.1,5.7-15.8,9.6-23.1l8.1,4.6c0.7,0.4,1.5,0.6,2.3,0.6c1.6,0,3.2-0.8,4.1-2.3c1.3-2.3,0.5-5.1-1.7-6.4l-8-4.6
		c4.5-7.1,9.6-13.8,15.3-19.9l6.5,6.6c0.9,0.9,2.1,1.4,3.3,1.4c1.2,0,2.4-0.5,3.3-1.4c1.8-1.9,1.8-4.8,0-6.7l-6.6-6.5
		c6.1-5.7,12.8-10.8,19.9-15.3l4.6,8c0.9,1.5,2.5,2.3,4.1,2.3c0.8,0,1.6-0.2,2.3-0.6c2.3-1.3,3-4.2,1.7-6.4l-4.6-8.1
		c7.3-3.9,15.1-7.2,23.1-9.6l2.4,9c0.6,2.1,2.5,3.5,4.5,3.5c0.4,0,0.8,0,1.2-0.2c2.5-0.7,4-3.2,3.3-5.8l-2.4-9
		c8-1.9,16.3-3,24.8-3.3v18.7c0,2.6,2.1,4.7,4.7,4.7s4.7-2.1,4.7-4.7v-18.7c8.5,0.3,16.8,1.4,24.8,3.2l-2.4,9
		c-0.7,2.5,0.8,5.1,3.3,5.8c0.4,0.1,0.8,0.2,1.2,0.2c2.1,0,4-1.4,4.6-3.5l2.4-9c8.1,2.5,15.8,5.7,23.1,9.6l-4.6,8.1
		c-1.3,2.3-0.5,5.1,1.7,6.4c0.7,0.4,1.5,0.6,2.3,0.6c1.6,0,3.2-0.8,4.1-2.3l4.6-8c7.1,4.5,13.8,9.6,19.9,15.3l-6.6,6.6
		c-1.8,1.8-1.8,4.8,0,6.6c0.9,0.9,2.1,1.4,3.3,1.4s2.4-0.5,3.3-1.4l6.5-6.5c5.7,6.1,10.8,12.8,15.3,19.9l-8,4.6
		c-2.3,1.3-3,4.2-1.7,6.4c0.9,1.5,2.5,2.3,4.1,2.3c0.8,0,1.6-0.2,2.4-0.6l8.1-4.6c3.9,7.3,7.2,15.1,9.6,23.1l-9,2.4
		c-2.5,0.7-4,3.2-3.3,5.8c0.6,2.1,2.5,3.5,4.6,3.5c0.4,0,0.8,0,1.2-0.2l9-2.4c1.8,8,3,16.3,3.3,24.8h-18.7c-2.6,0-4.7,2.1-4.7,4.7
		c0,2.6,2.1,4.7,4.7,4.7h18.7c-0.3,8.5-1.4,16.8-3.2,24.8l-9-2.4c-2.5-0.7-5.1,0.8-5.8,3.3C277.1,275,278.6,277.6,281.1,278.3
		L281.1,278.3z M281.1,278.3"/>
	<path d="M215.8,237.3h-33.7c-1.7-6.6-6.9-11.8-13.5-13.5v-61.9c0-2.6-2.1-4.7-4.7-4.7s-4.7,2.1-4.7,4.7v61.9
		c-8.1,2.1-14.1,9.4-14.1,18.2c0,10.4,8.4,18.8,18.8,18.8c8.8,0,16.1-6,18.2-14.1h33.7c2.6,0,4.7-2.1,4.7-4.7
		C220.6,239.4,218.4,237.3,215.8,237.3L215.8,237.3z M164,251.4c-5.2,0-9.4-4.2-9.4-9.4c0-5.2,4.2-9.4,9.4-9.4
		c5.2,0,9.4,4.2,9.4,9.4C173.4,247.2,169.2,251.4,164,251.4L164,251.4z M164,251.4"/>
</g>
</svg>
